# xmcd CD database file
#
# Track frame offsets:
#	150
#	22732
#	42202
#	62150
#	83093
#	110081
#	126153
#	145368
#	166724
#	184018
#	205832
#
# Disc length: 2965 seconds
#
# Revision: 0
# Processed by: cddbd v1.5.2PL0 Copyright (c) Steve Scherf et al.
# Submitted via: CDex 1.70beta2
#
DISCID=8f0b930b
DTITLE=Norman Brown - Stay With Me
DYEAR=2007
DGENRE=Jazz
TTITLE0=01 - Let's Take A Ride
TTITLE1=02 - You Keep Lifting Me Higher
TTITLE2=03 - Pop's Cool Groove
TTITLE3=04 - It Ain't Over BWB
TTITLE4=05 - So In Love
TTITLE5=06 - Stay With Me
TTITLE6=07 - Soul Dance
TTITLE7=09 - Every Little Thing
TTITLE8=09 - A Quiet Place
TTITLE9=10 - I Need You
TTITLE10=11 - Keep It Rollin'
EXTD=YEAR: 2007
EXTT0=
EXTT1=
EXTT2=
EXTT3=
EXTT4=
EXTT5=
EXTT6=
EXTT7=
EXTT8=
EXTT9=
EXTT10=
PLAYORDER=
